0
SECTION
2
HEADER
9
$ACADVER
1
AC1009
9
$INSUNITS
70
4
0
ENDSEC
0
SECTION
2
ENTITIES
0
LINE
8
EXTERNAL_WALLS
10
0
20
0
11
6000
21
0
0
LINE
8
EXTERNAL_WALLS
10
6000
20
0
11
6000
21
4000
0
LINE
8
EXTERNAL_WALLS
10
6000
20
4000
11
0
21
4000
0
LINE
8
EXTERNAL_WALLS
10
0
20
4000
11
0
21
0
0
LINE
8
INTERNAL_WALLS
10
3500
20
0
11
3500
21
4000
0
LINE
8
INTERNAL_WALLS
10
3500
20
2200
11
6000
21
2200
0
TEXT
8
ROOM_NAMES
10
1000
20
2000
40
220
1
LIVING ROOM
0
TEXT
8
ROOM_NAMES
10
4300
20
3000
40
220
1
BEDROOM
0
TEXT
8
ROOM_NAMES
10
4300
20
1000
40
220
1
KITCHEN
0
ENDSEC
0
EOF
